<svg xmlns="http://www.w3.org/2000/svg" width="720" height="380" viewBox="0 0 720 380"><rect width="720" height="380" rx="28" fill="#f3f5f8"/>
<rect x="28" y="28" width="664" height="324" rx="22" fill="#fbfaf7"/>
<rect x="48" y="48" width="250" height="224" rx="16" fill="#fff"/>
<g fill="#111827"><rect x="66" y="72" width="120" height="12" rx="5"/><rect x="66" y="116" width="150" height="12" rx="5"/><rect x="66" y="160" width="135" height="12" rx="5"/><rect x="66" y="204" width="145" height="12" rx="5"/></g>
<g fill="#c7a56a"><rect x="250" y="70" width="26" height="14" rx="5"/><rect x="250" y="114" width="26" height="14" rx="5"/><rect x="250" y="158" width="26" height="14" rx="5"/></g>
<rect x="318" y="48" width="166" height="224" rx="18" fill="#d8c4a4"/><rect x="500" y="48" width="172" height="224" rx="18" fill="#b58e5b"/>
<rect x="48" y="288" width="624" height="44" rx="14" fill="#111827"/>
</svg>