<svg xmlns="http://www.w3.org/2000/svg" width="1000" height="620" viewBox="0 0 1000 620"><rect width="1000" height="620" fill="#f6f8fb"/><rect x="35" y="28" width="930" height="58" rx="15" fill="#fff"/><circle cx="68" cy="57" r="13" fill="#1d4ed8"/><rect x="94" y="48" width="110" height="17" rx="8" fill="#172033"/><rect x="650" y="51" width="58" height="9" rx="4" fill="#94a3b8"/><rect x="725" y="51" width="58" height="9" rx="4" fill="#94a3b8"/><rect x="815" y="42" width="115" height="30" rx="10" fill="#1d4ed8"/><text x="70" y="165" font-family="Arial" font-size="15" font-weight="700" fill="#1d4ed8">PREMIUM WEBSITE</text><text x="70" y="220" font-family="Arial" font-size="40" font-weight="800" fill="#111827">Premium Properties</text><text x="70" y="258" font-family="Arial" font-size="18" fill="#64748b">Doğru lokasyon. Doğru yatırım.</text><rect x="70" y="288" width="135" height="42" rx="12" fill="#1d4ed8"/><rect x="220" y="288" width="135" height="42" rx="12" fill="#fff" stroke="#dbe3ee"/><rect x="625" y="125" width="300" height="190" rx="28" fill="#1d4ed8" opacity=".12"/><circle cx="775" cy="220" r="68" fill="#1d4ed8" opacity=".25"/><rect x="70" y="360" width="250" height="145" rx="18" fill="#fff"/><rect x="88" y="382" width="76" height="10" rx="5" fill="#1d4ed8" opacity=".25"/><text x="88" y="422" font-size="17" font-weight="700" fill="#172033">Portföy</text><rect x="88" y="443" width="180" height="7" rx="3" fill="#cbd5e1"/><rect x="88" y="459" width="140" height="7" rx="3" fill="#e2e8f0"/><rect x="355" y="360" width="250" height="145" rx="18" fill="#fff"/><rect x="373" y="382" width="76" height="10" rx="5" fill="#1d4ed8" opacity=".25"/><text x="373" y="422" font-size="17" font-weight="700" fill="#172033">Lokasyonlar</text><rect x="373" y="443" width="180" height="7" rx="3" fill="#cbd5e1"/><rect x="373" y="459" width="140" height="7" rx="3" fill="#e2e8f0"/><rect x="640" y="360" width="250" height="145" rx="18" fill="#fff"/><rect x="658" y="382" width="76" height="10" rx="5" fill="#1d4ed8" opacity=".25"/><text x="658" y="422" font-size="17" font-weight="700" fill="#172033">Danışmanlar</text><rect x="658" y="443" width="180" height="7" rx="3" fill="#cbd5e1"/><rect x="658" y="459" width="140" height="7" rx="3" fill="#e2e8f0"/><rect x="70" y="548" width="860" height="35" rx="12" fill="#172033"/></svg>